:version 1.10
:name ASF
:units
  mass 1
  length 1
  angle deg
:documentation
  ASF file generated by Kaydara
:root
  axis xyz
  order  tx ty tz rx ry rz
  position 0 0 0
  orientation 0 0 0
:bonedata
  begin
    id 1
    name RightUpLegDummy
    direction -0.65628 -0.754516 0.00165102
    length 4.76918
    axis 0 0 0 xyz
  end
  begin
    id 2
    name RightUpLeg
    direction -0.145584 -0.923362 0.355256
    length 17.9961
    axis -24.7611 -13.1006 1.78531 xyz
    dof rx ry rz
  end
  begin
    id 3
    name RightLeg
    direction 0.263379 0.172355 -0.949171
    length 13.3386
    axis 89.6202 -21.1929 12.3855 xyz
    dof rx ry rz
  end
  begin
    id 4
    name RightFoot
    direction 0.224283 -0.968777 -0.105675
    length 5.86697
    axis 56.995 -39.6905 17.3365 xyz
    dof rx ry rz
  end
  begin
    id 5
    name RightToes
    direction -0.0806345 -0.9037 0.420506
    length 4.75197
    axis 146.825 -39.7828 17.6019 xyz
    dof rx ry rz
  end
  begin
    id 6
    name SpineDummy
    direction -3.39852e-014 1 9.33296e-014
    length 8.13779
    axis 0 0 0 xyz
  end
  begin
    id 7
    name Spine
    direction -0.156609 0.733703 0.661176
    length 7.14978
    axis 41.2365 5.68757 17.0844 xyz
    dof rx ry rz
  end
  begin
    id 8
    name Spine1
    direction 0 0 0
    length 0
    axis 42.8809 47.8308 -3.36039 xyz
    dof rx ry rz
  end
  begin
    id 9
    name HEadDummy
    direction 0.546431 0.701947 0.456819
    length 3.55512
    axis 42.8809 47.8308 -3.36039 xyz
  end
  begin
    id 10
    name HEad
    direction 0.23444 0.828559 0.508457
    length 7.35827
    axis 51.1864 49.2662 27.4903 xyz
    dof rx ry rz
  end
  begin
    id 11
    name LeftShoulder1Dummy
    direction 0.431183 0.475873 -0.766568
    length 2.49352
    axis 42.8809 47.8308 -3.36039 xyz
  end
  begin
    id 12
    name LeftShoulder1
    direction 0.268187 -0.383402 -0.883786
    length 4.48604
    axis -119.517 0.106469 35.1736 xyz
    dof rx ry rz
  end
  begin
    id 13
    name LeftArm
    direction 0.380567 -0.703221 -0.600541
    length 10.1142
    axis -5.41825 36.2925 7.8293 xyz
    dof rx ry rz
  end
  begin
    id 14
    name LeftForeArm
    direction 0.541071 -0.732356 -0.413396
    length 9.39839
    axis 4.65387 33.7604 7.81644 xyz
    dof rx ry rz
  end
  begin
    id 15
    name LeftHand
    direction 0.847511 -0.389379 -0.360707
    length 3.66142
    axis 7.65593 21.1436 -24.6758 xyz
    dof rx ry rz
  end
  begin
    id 16
    name RightShoulderDummy
    direction -0.692546 0.541855 0.476208
    length 2.49352
    axis 42.8809 47.8308 -3.36039 xyz
  end
  begin
    id 17
    name RightShoulder
    direction -0.870808 -0.316653 0.376065
    length 4.48602
    axis 141.571 51.133 -100.254 xyz
    dof rx ry rz
  end
  begin
    id 18
    name RightArm
    direction 0.366897 -0.87275 0.322015
    length 10.1142
    axis 92.3258 71.2036 138.917 xyz
    dof rx ry rz
  end
  begin
    id 19
    name RightForeArm
    direction 0.702487 -0.694568 0.155197
    length 9.39835
    axis 153.863 41.5092 -176.604 xyz
    dof rx ry rz
  end
  begin
    id 20
    name RightHand
    direction 0.79502 -0.601276 0.0800636
    length 3.66142
    axis 154.247 4.59222 142.9 xyz
    dof rx ry rz
  end
  begin
    id 21
    name LeftUpLegDummy
    direction 0.65628 -0.754516 0.00165102
    length 4.76919
    axis 0 0 0 xyz
  end
  begin
    id 22
    name LeftUpLeg
    direction -0.1277 -0.689368 0.713067
    length 17.9961
    axis -48.3385 -17.8675 0.791927 xyz
    dof rx ry rz
  end
  begin
    id 23
    name LeftLeg
    direction 0.109849 -0.991246 -0.0732378
    length 13.3386
    axis -2.05791 -7.30784 1.72042 xyz
    dof rx ry rz
  end
  begin
    id 24
    name LeftFoot
    direction 0.0448355 -0.272614 0.961078
    length 5.86697
    axis -18.7733 -7.89606 10.2113 xyz
    dof rx ry rz
  end
  begin
    id 25
    name LeftToes
    direction -0.18506 0.293668 0.937823
    length 4.75197
    axis 71.2267 -7.89606 10.2113 xyz
    dof rx ry rz
  end
:hierarchy
  begin
    root RightUpLegDummy SpineDummy LeftUpLegDummy
    RightUpLegDummy RightUpLeg
    RightUpLeg RightLeg
    RightLeg RightFoot
    RightFoot RightToes
    SpineDummy Spine
    Spine Spine1
    Spine1 HEadDummy LeftShoulder1Dummy RightShoulderDummy
    HEadDummy HEad
    LeftShoulder1Dummy LeftShoulder1
    LeftShoulder1 LeftArm
    LeftArm LeftForeArm
    LeftForeArm LeftHand
    RightShoulderDummy RightShoulder
    RightShoulder RightArm
    RightArm RightForeArm
    RightForeArm RightHand
    LeftUpLegDummy LeftUpLeg
    LeftUpLeg LeftLeg
    LeftLeg LeftFoot
    LeftFoot LeftToes
  end

:SAMPLES-PER-SECOND 30
:FULLY-SPECIFIED
:DEGREES
593
root  5.25649 37.3729 -44.2502 173.852 -6.01463 -173.781
RightUpLeg  36.9514 6.2844 13.1754
RightLeg  -98.5197 -10.8041 -0.044942
RightFoot  7.04619 4.92199 -13.3912
RightToes  -1.27222e-014 -6.36111e-015 6.36111e-015
Spine  -30.1439 3.72331 3.2661
Spine1  6.24235 -3.11809 29.2676
HEad  -4.06991 -30.939 -23.5423
LeftShoulder1  6.36111e-015 -1.33558e-015 6.49777e-015
LeftArm  45.0909 15.4607 -43.5942
LeftForeArm  -1.30983 -23.2014 -1.31849
LeftHand  -1.58686 -1.91781 -13.2761
RightShoulder  -4.77083e-015 -6.36111e-015 -3.18055e-015
RightArm  26.2053 9.96477 2.50969
RightForeArm  -7.02496 -7.22956 -1.96589
RightHand  0.552115 0.734365 -5.45528
LeftUpLeg  22.2495 6.8533 19.7448
LeftLeg  -30.8207 -13.6946 3.22547
LeftFoot  14.685 6.43734 -14.6234
LeftToes  9.54166e-015 4.2066e-011 -8.07781e-011
594
root  5.09417 36.7619 -45.1729 172.82 -11.7749 -174.467
RightUpLeg  38.1013 5.07005 13.3486
RightLeg  -95.2246 -11.9068 4.7967
RightFoot  3.2911 4.64246 -11.7977
RightToes  -1.27222e-014 -6.36111e-015 6.36111e-015
Spine  -28.1089 2.05302 3.59095
Spine1  7.13627 -4.34236 28.5026
HEad  -6.39998 -35.6001 -22.2947
LeftShoulder1  6.36111e-015 -1.33558e-015 6.49777e-015
LeftArm  40.7549 8.20125 -44.8918
LeftForeArm  -4.01549 -22.2433 -0.723722
LeftHand  -0.433161 1.34144 -10.0564
RightShoulder  -4.77083e-015 -6.36111e-015 -3.18055e-015
RightArm  15.33 -0.979294 -12.5712
RightForeArm  5.14947 3.67158 8.38984
RightHand  0.605783 0.0591528 -4.71706
LeftUpLeg  18.7468 2.08393 13.7016
LeftLeg  -21.9668 -14.7226 0.720282
LeftFoot  18.5687 6.61477 -13.7839
LeftToes  9.54166e-015 4.2066e-011 -8.07781e-011
595
root  4.88357 36.259 -46.1596 173.696 -16.0152 -178.095
RightUpLeg  36.0282 7.48976 12.838
RightLeg  -87.2452 -14.8499 10.8539
RightFoot  1.85555 3.17703 -8.08115
RightToes  -1.27222e-014 -6.36111e-015 6.36111e-015
Spine  -25.5075 -0.720634 0.840999
Spine1  8.00486 -4.70505 26.7523
HEad  -9.59904 -41.1176 -18.5899
LeftShoulder1  6.36111e-015 -1.33558e-015 6.49777e-015
LeftArm  33.5308 3.4292 -42.5378
LeftForeArm  -7.6004 -26.8745 0.834031
LeftHand  0.359477 3.02249 -7.29776
RightShoulder  -4.77083e-015 -6.36111e-015 -3.18055e-015
RightArm  18.0866 -6.80486 -18.1519
RightForeArm  7.48311 4.68777 10.2244
RightHand  0.331241 0.423526 -3.17161
LeftUpLeg  15.1785 4.18291 8.54352
LeftLeg  -14.9408 -17.1899 0.289122
LeftFoot  18.7784 5.7933 -12.0411
LeftToes  9.54166e-015 4.2066e-011 -8.07781e-011
596
root  4.62752 35.7825 -47.1165 175.351 -16.9284 176.99
RightUpLeg  30.6962 11.0201 10.4159
RightLeg  -73.8481 -20.5009 13.7039
RightFoot  5.82511 1.96324 -7.03997
RightToes  -1.27222e-014 -6.36111e-015 6.36111e-015
Spine  -22.0681 -3.77814 -4.00368
Spine1  8.99556 -4.26798 24.8077
HEad  -13.4389 -45.2136 -14.5347
LeftShoulder1  6.36111e-015 -1.33558e-015 6.49777e-015
LeftArm  25.9396 1.38555 -40.1815
LeftForeArm  -15.0332 -35.5654 5.57318
LeftHand  0.370703 2.68983 -6.20401
RightShoulder  -4.77083e-015 -6.36111e-015 -3.18055e-015
RightArm  29.7819 -5.35363 -12.7737
RightForeArm  -0.0820798 -1.68993 6.33991
RightHand  -0.430846 2.31323 0.316792
LeftUpLeg  12.6808 9.28849 5.64506
LeftLeg  -9.34768 -18.1509 -0.549486
LeftFoot  15.6888 5.42768 -12.0808
LeftToes  9.54166e-015 4.2066e-011 -8.07781e-011
597
root  4.28242 35.226 -48.02 175.846 -16.1154 173.262
RightUpLeg  24.0709 13.1088 7.18428
RightLeg  -58.7213 -26.8111 13.3187
RightFoot  13.1062 3.12888 -11.573
RightToes  -1.27222e-014 -6.36111e-015 6.36111e-015
Spine  -19.3373 -6.69885 -8.65013
Spine1  11.0097 -4.279 24.3718
HEad  -17.1927 -46.7725 -12.094
LeftShoulder1  6.36111e-015 -1.33558e-015 6.49777e-015
LeftArm  19.1915 -1.59725 -40.2829
LeftForeArm  -26.0756 -43.205 13.8194
LeftHand  0.0520261 1.68558 -6.08404
RightShoulder  -4.77083e-015 -6.36111e-015 -3.18055e-015
RightArm  42.6406 -3.86476 0.386457
RightForeArm  -9.50145 -10.7314 1.10423
RightHand  -1.13582 4.34786 4.27543
LeftUpLeg  11.6857 15.2792 5.36678
LeftLeg  -3.56893 -18.926 -1.61624
LeftFoot  12.1253 5.22601 -12.6332
LeftToes  9.54166e-015 4.2066e-011 -8.07781e-011
598
root  3.84113 34.8773 -48.9385 175.462 -15.7669 171.347
RightUpLeg  17.6759 12.1151 3.61722
RightLeg  -46.4674 -32.0544 11.6865
RightFoot  16.6686 5.16079 -15.8054
RightToes  -1.27222e-014 -6.36111e-015 6.36111e-015
Spine  -19.2329 -9.53779 -11.4647
Spine1  13.8565 -5.58781 26.1
HEad  -20.2524 -46.8676 -11.1915
LeftShoulder1  6.36111e-015 -1.33558e-015 6.49777e-015
LeftArm  12.4618 -7.86177 -41.6551
LeftForeArm  -34.6912 -47.1347 21.1098
LeftHand  -0.113365 1.0967 -5.76744
RightShoulder  -4.77083e-015 -6.36111e-015 -3.18055e-015
RightArm  47.0968 -7.31347 7.50566
RightForeArm  -12.5297 -13.8541 -0.412818
RightHand  -1.1982 3.91414 5.58804
LeftUpLeg  12.2003 19.6598 5.92682
LeftLeg  1.26082 -20.0901 -2.72682
LeftFoot  9.38695 4.72014 -12.2096
LeftToes  9.54166e-015 4.2066e-011 -8.07781e-011
